<?xml version="1.0" standalone="no"?><!DOCTYPE svg PUBLIC "-//W3C//DTD SVG 1.1//EN" "http://www.w3.org/Graphics/SVG/1.1/DTD/svg11.dtd"><svg t="1710848905590" class="icon" viewBox="0 0 1024 1024" version="1.1" xmlns="http://www.w3.org/2000/svg" p-id="12175" id="mx_n_1710848905591" xmlns:xlink="http://www.w3.org/1999/xlink" width="240" height="240"><path d="M0 0m146.285714 0l731.428572 0q146.285714 0 146.285714 146.285714l0 731.428572q0 146.285714-146.285714 146.285714l-731.428572 0q-146.285714 0-146.285714-146.285714l0-731.428572q0-146.285714 146.285714-146.285714Z" fill="#4794E7" p-id="12176"></path><path d="M584.728381 690.590476l133.412571 89.356191c3.169524 1.755429 6.680381 2.584381 10.191238 2.584381a21.625905 21.625905 0 0 0 11.532191-3.413334 23.381333 23.381333 0 0 0 10.459429-19.943619l-1.950477-132.266666c25.380571-18.212571-29.159619 3.023238-163.644952 63.683047z" fill="#FFFFFF" p-id="12177"></path><path d="M512 232.71619l7.509333 0.097524c157.184 3.486476 283.40419 116.053333 283.404191 254.464 0 140.580571-130.243048 254.537143-290.913524 254.537143-160.670476 0-290.913524-113.956571-290.913524-254.537143 0-140.580571 130.243048-254.537143 290.913524-254.537143z m33.889524 142.555429c-10.24 0-18.529524 8.313905-18.529524 18.553905v62.951619a5.632 5.632 0 0 1-5.656381 5.656381h-96.914286a5.632 5.632 0 0 1-5.607619-5.656381v-62.951619a18.553905 18.553905 0 0 0-37.107809 0v185.246476a18.553905 18.553905 0 0 0 37.083428 0v-73.532952c0-3.120762 2.535619-5.656381 5.632-5.656381h96.914286c3.120762 0 5.632 2.535619 5.632 5.656381v73.532952a18.553905 18.553905 0 0 0 37.10781 0v-185.246476c0-10.24-8.313905-18.529524-18.553905-18.529524z m76.068571 62.951619c-10.24 0-18.578286 8.313905-18.578285 18.553905v122.294857a18.553905 18.553905 0 0 0 37.107809 0v-122.294857c0-10.24-8.289524-18.529524-18.529524-18.529524z m0-62.951619c-10.24 0-18.578286 8.313905-18.578285 18.553905v8.728381a18.553905 18.553905 0 0 0 37.107809 0v-8.728381c0-10.24-8.289524-18.529524-18.529524-18.529524z" fill="#FFFFFF" p-id="12178"></path><path d="M778.532571 385.121524c15.676952 31.256381 24.380952 65.828571 24.380953 102.15619 0 55.296-20.163048 106.496-54.393905 148.236191l1.804191 123.66019a23.381333 23.381333 0 0 1-10.48381 19.943619 21.625905 21.625905 0 0 1-11.50781 3.413334 21.040762 21.040762 0 0 1-10.191238-2.584381l-89.014857-59.611429c-35.84 13.824-75.459048 21.479619-117.126095 21.479619-62.415238 0-120.198095-17.188571-167.570286-46.445714 29.988571 7.387429 61.68381 11.337143 94.427429 11.337143 188.513524 0 341.333333-130.998857 341.333333-292.571429 0-9.240381-0.487619-18.383238-1.462857-27.379809z" fill="#BED9F6" opacity=".65" p-id="12179"></path></svg>