<?xml version="1.0" standalone="no"?><!DOCTYPE svg PUBLIC "-//W3C//DTD SVG 1.1//EN" "http://www.w3.org/Graphics/SVG/1.1/DTD/svg11.dtd"><svg t="1710848924798" class="icon" viewBox="0 0 5593 1024" version="1.1" xmlns="http://www.w3.org/2000/svg" p-id="13122" xmlns:xlink="http://www.w3.org/1999/xlink" width="1310.859375" height="240"><path d="M596.749222 66.270068l-224.298693 543.86061 99.723709 413.869322h-85.705041c-34.728065 0-59.260734-21.028002-73.598008-62.765401l-42.374612-170.135657-72.64219 163.444929c-23.258245 46.197884-52.570006 69.456129-88.891101 69.456129H0l213.466086-477.590541L126.805227 183.517113c35.365277 0 69.137523 15.293093 101.316739 45.879278 32.179216 30.586185 53.844431 68.500311 65.632857 113.105165l3.186061 14.018668 98.449284-232.901058H129.03547v-0.955818c16.567517-56.393279 43.649035-84.430616 81.244555-84.430616h373.724953c5.73491 0 9.876789 2.867455 12.425638 8.602364 2.548849 5.73491 2.548849 12.425638 0.637212 19.434972zM930.329807 507.220909h162.48911l138.593653 512.318606h-146.240199c-25.169882 0-43.330429-15.930305-54.163037-47.790915l-116.928438-434.260112-163.444928 354.289981c-26.762912 55.756067-61.490977 91.121344-104.502801 106.095831-43.011823 15.293093-93.351587 22.621033-151.01929 22.621033l343.457374-713.67766c8.602365-19.434972 20.39079-35.683883 35.046671-48.109521 14.655881-12.744244 30.904792-18.79776 48.10952-18.79776h132.221531l-123.619166 267.629123z m-171.091475-168.861233c-7.32794 24.53267-20.709396 36.958307-40.144368 36.958308h-127.761046l53.207219-328.164281c9.239577-30.904792 26.762912-46.51649 51.932794-46.516491h118.202862l-55.118855 338.041071z m552.462975-300.126944c12.107032 0 21.983821 4.460485 29.311761 13.06285 7.32794 8.602365 9.876789 20.709396 7.646546 35.683883l-46.51649 288.019913H1140.609832l36.958307-229.714997H814.675793l18.479154-107.370255h478.864966zM1521.981332 306.817673h-78.058494l5.416303-42.374611c2.230243-11.46982 7.646546-21.028002 16.886123-28.037337 8.920971-7.32794 19.434972-10.832607 30.904792-10.832607h259.982576l-88.891101 619.688861c-1.59303 8.602365-0.318606 16.567517 3.186061 23.895457 3.504667 7.965152 8.920971 14.337274 16.248911 19.434972 5.73491 5.73491 12.744244 10.195395 20.709396 13.06285 8.602365 3.504667 16.248911 5.416304 22.621033 5.416304l978.120722 31.542004c-4.460485 23.895457-15.611699 43.330429-34.090853 58.623522S2634.872433 1019.858121 2609.383945 1019.858121l-967.288114-30.26758-3.186061 6.372122c-7.965152 12.425638-18.479154 19.753578-31.86061 22.621033-13.381456 2.867455-28.037337 3.823273-43.967642 3.186061H1411.425016l110.556316-714.952084zM1542.690728 3.504667l217.607965 81.244555-47.790915 118.202863-94.307405-35.683883c-34.728065-13.700062-58.942128-36.002489-72.960796-66.588675-14.018668-30.586185-14.974487-63.084007-2.548849-96.856254zM1919.601742 64.039826h361.936528c-12.425638 60.535159-48.746733 91.121344-109.281892 91.121344h-49.702551l-86.660859 595.793404 148.470442-19.434972-14.018668 96.537648-368.30865 43.330429 118.202863-807.029247z m561.06534 763.698817l97.493466-672.577473h-69.45613l-110.556316 750.635968H2182.451773L2304.796515 64.039826h457.199751l-96.537647 667.16117c-3.504667 70.730554-40.462974 102.90977-110.556317 96.537647h-74.872433zM3990.859988 794.285003l-70.411948 129.03547h147.196017l-5.416303 47.790915c-2.230243 14.337274-8.283759 26.444306-18.479154 36.321095-10.195395 9.876789-21.983821 14.655881-35.683883 14.65588H2812.017424l5.416303-47.790914c2.230243-15.293093 8.283759-27.400124 18.479154-36.958308 10.195395-9.239577 21.983821-14.018668 35.683883-14.018668h98.449285l-32.497822-129.03547h134.451773c23.258245 0 43.649035 7.646546 61.809583 22.621033 18.160548 15.293093 29.948973 34.728065 35.683883 58.623522l14.018668 47.790915h522.195396l27.081518-42.374611c34.728065-57.667704 80.607343-86.660859 137.637834-86.660859h120.114499z m175.55196-601.209707l-5.416304 34.728064c-2.230243 15.293093-7.965152 27.718731-17.841941 37.914126-9.876789 10.195395-21.983821 16.248911-36.321096 18.479154l-58.623522 7.646546 91.121344 99.723709H3950.715619c-42.693217 0-79.651525-16.886123-111.512134-50.976976l-7.646547-8.602365-0.955818 6.372122c-2.230243 14.337274-8.283759 26.1257-18.479154 35.046671-10.195395 8.920971-21.983821 13.700062-35.683883 13.700062h-564.2514l6.372122-47.790914-19.434972 14.018668c-36.002489 25.169882-74.872433 37.914126-115.97262 37.914126h-188.61481l161.533292-120.114499-65.951462-3.186061c-21.028002-2.230243-37.914126-11.46982-50.339764-28.037337-12.744244-16.567517-17.841942-36.002489-15.611699-58.623522l236.087119 14.018668 114.698196-93.03298h-267.629123c-18.79776 0-34.090853-7.32794-45.560672-21.665215-11.46982-14.337274-16.248911-31.542004-14.018668-50.976976l2.230242-14.018668h561.065339l-11.788425 86.660859-227.484754 198.172993h533.98382L3587.823273 1.274424h236.087119l34.728065 38.869944 321.792159-40.144368-4.460485 29.311761c-7.32794 36.958307-28.037337 58.942128-62.765402 65.951462l-184.154325 22.621033 64.995645 93.032981 172.365899-18.479154z m-298.85252 319.561916H3172.042315l11.788426-86.660859h909.939016l-29.311761 218.88239c-4.460485 33.135034-19.116366 61.490977-44.286247 84.430616-25.169882 23.258245-53.525825 34.728065-84.430616 34.728065H3000.95084c-31.223398 0-56.074673-11.46982-74.872433-34.728065-19.434972-23.258245-27.081518-51.295582-22.621033-84.430616l29.311761-218.88239h214.421904l-11.788425 86.660859-4.460486 33.453641-11.788425 92.077162c-1.59303 10.195395 0.955818 19.116366 7.646546 27.081518 6.372122 7.965152 14.655881 11.788426 24.851276 11.788426h656.328562c10.195395 0 19.434972-3.823273 28.037337-11.788426s13.700062-16.886123 15.293092-27.081518l16.248912-125.530803zM4313.607965 808.303671c42.693217-76.465464 99.086497-114.698195 168.861232-114.698195h103.865588l-135.407591 305.543248c-7.965152 14.337274-18.479154 21.665215-31.542004 21.665215h-200.403236l94.307405-212.191661z m1017.309272-473.448662l30.267579-218.882389c0.637212-9.239577-1.59303-17.204729-6.372122-23.895458a28.355943 28.355943 0 0 0-21.665214-9.876789h-923.001867a28.355943 28.355943 0 0 1-22.621033-9.876789c-5.73491-6.372122-7.965152-14.655881-6.372122-24.851275l5.416304-46.516491h1098.553827c28.993155 0 51.932794 10.195395 69.456129 30.26758 16.567517 21.028002 23.258245 46.197884 19.434972 75.828251l-31.542004 227.484754h49.702552l-9.876789 70.411948c-1.59303 7.32794-4.779091 13.381456-10.195395 18.479154-5.416304 5.097698-11.788426 7.646546-19.116366 7.646546h-501.485999l-64.039826 468.988177c-5.097698 32.497822-20.709396 60.535159-46.51649 84.430616-26.762912 23.895457-56.074673 35.683883-87.616677 35.683883h-253.610455l6.372122-45.560672c2.230243-10.832607 7.32794-19.753578 15.293093-27.081519 7.965152-7.32794 16.567517-10.832607 26.1257-10.832607h80.288737c8.602365 0 16.567517-3.186061 23.258245-9.239577 7.009334-6.053516 11.46982-13.381456 13.381456-22.302427l64.995644-474.40448h-535.258245l8.602365-68.181705c1.59303-7.965152 5.097698-14.655881 11.469819-20.072184 6.053516-5.416304 12.744244-7.965152 20.072185-7.965153h996.599875z m-738.847542 315.101432h-221.112632l-18.479154-173.321718h187.340386c21.028002 0 34.090853 11.46982 38.869944 34.728065l13.06285 138.593653z m685.640324-487.467331l-9.876789 68.181705c-0.637212 7.32794-4.141879 13.381456-10.195396 18.79776a29.630367 29.630367 0 0 1-20.072184 8.283759h-861.192283l8.602364-67.225887c1.59303-7.965152 5.097698-14.655881 11.46982-20.072184 6.053516-5.416304 13.06285-7.965152 21.028002-7.965153h860.236466z m-79.014313 530.79776h175.55196c26.762912 0 44.286248 14.655881 53.207219 44.286248l47.790915 282.603609h-32.497822c-112.786559 0-186.065961-61.809583-219.838208-185.110143l-23.895458-141.779714z m275.275669-172.365899c-15.293093 38.232732-39.18855 69.456129-72.004978 93.03298-32.816428 23.895457-68.500311 35.683883-106.733043 35.683883h-91.121344l48.746733-129.991288c5.097698-13.06285 13.06285-23.576851 23.895457-31.542003s22.621033-11.788426 35.683883-11.788426h178.738022l-17.20473 44.286248z" fill="#1296db" p-id="13123"></path></svg>