<?xml version="1.0" standalone="no"?><!DOCTYPE svg PUBLIC "-//W3C//DTD SVG 1.1//EN" "http://www.w3.org/Graphics/SVG/1.1/DTD/svg11.dtd"><svg t="1710684516350" class="icon" viewBox="0 0 1024 1024" version="1.1" xmlns="http://www.w3.org/2000/svg" p-id="2755" width="240" height="240" xmlns:xlink="http://www.w3.org/1999/xlink"><path d="M921.6 0h-819.2A102.4 102.4 0 0 0 0 102.4v682.666667A102.4 102.4 0 0 0 102.4 887.466667H273.066667v102.4a34.133333 34.133333 0 0 0 51.063466 29.627733L555.2128 887.466667H921.6a102.4 102.4 0 0 0 102.4-102.4v-682.666667A102.4 102.4 0 0 0 921.6 0z m34.133333 785.066667a34.133333 34.133333 0 0 1-34.133333 34.133333H546.133333a34.133333 34.133333 0 0 0-16.930133 4.5056L341.333333 931.0208V853.333333a34.133333 34.133333 0 0 0-34.133333-34.133333h-204.8a34.133333 34.133333 0 0 1-34.133333-34.133333v-682.666667a34.133333 34.133333 0 0 1 34.133333-34.133333h819.2a34.133333 34.133333 0 0 1 34.133333 34.133333z" fill="#0079fe" p-id="2756"></path><path d="M512 204.8a34.133333 34.133333 0 0 0-34.133333 34.133333V409.6H341.333333V238.933333a34.133333 34.133333 0 0 0-68.266666 0v409.6a34.133333 34.133333 0 0 0 68.266666 0V477.866667h136.533334v170.666666a34.133333 34.133333 0 0 0 68.266666 0v-409.6a34.133333 34.133333 0 0 0-34.133333-34.133333zM716.8 409.6a34.133333 34.133333 0 0 0-34.133333 34.133333v204.8a34.133333 34.133333 0 0 0 68.266666 0v-204.8a34.133333 34.133333 0 0 0-34.133333-34.133333zM716.8 204.8a34.133333 34.133333 0 0 0-34.133333 34.133333v68.266667a34.133333 34.133333 0 0 0 68.266666 0v-68.266667a34.133333 34.133333 0 0 0-34.133333-34.133333z" fill="#0079fe" p-id="2757"></path></svg>