<?xml version="1.0" standalone="no"?><!DOCTYPE svg PUBLIC "-//W3C//DTD SVG 1.1//EN" "http://www.w3.org/Graphics/SVG/1.1/DTD/svg11.dtd"><svg t="1683252262304" class="icon" viewBox="0 0 1024 1024" version="1.1" xmlns="http://www.w3.org/2000/svg" p-id="3058" width="128" height="128" xmlns:xlink="http://www.w3.org/1999/xlink"><path d="M930.2016 763.2896a40.96 40.96 0 0 1-14.5408-13.1072l-3.4816-6.3488-3.6864-6.144a39.1168 39.1168 0 0 1-4.096-19.0464 57.344 57.344 0 0 0-89.9072-50.3808 30.9248 30.9248 0 0 1-19.0464 5.3248h-11.8784a34.816 34.816 0 0 1-20.48-5.5296 57.1392 57.1392 0 0 0-88.6784 51.2 33.9968 33.9968 0 0 1-5.3248 20.48c-2.2528 3.4816-4.096 6.7584-5.9392 10.24a32.5632 32.5632 0 0 1-14.1312 14.1312 57.344 57.344 0 0 0-1.4336 102.4 40.96 40.96 0 0 1 14.5408 13.1072l3.4816 6.3488 3.6864 5.9392a45.4656 45.4656 0 0 1 4.096 19.2512A57.344 57.344 0 0 0 763.2896 962.56a32.5632 32.5632 0 0 1 19.2512-5.3248h12.4928a34.4064 34.4064 0 0 1 20.48 5.5296 57.1392 57.1392 0 0 0 88.064-50.9952 35.4304 35.4304 0 0 1 5.3248-20.48c2.2528-3.4816 4.3008-7.168 6.3488-10.8544a31.9488 31.9488 0 0 1 14.1312-13.9264 57.7536 57.7536 0 0 0 32.5632-51.8144 57.1392 57.1392 0 0 0-31.744-51.4048z m-18.432 67.584A69.2224 69.2224 0 0 0 880.64 862.0032l-4.5056 7.7824a72.9088 72.9088 0 0 0-11.4688 42.8032 18.0224 18.0224 0 0 1-9.0112 16.5888 17.408 17.408 0 0 1-18.8416 0 73.728 73.728 0 0 0-42.8032-11.4688h-9.0112a70.656 70.656 0 0 0-43.008 12.0832 18.0224 18.0224 0 0 1-19.456 0 17.8176 17.8176 0 0 1-9.0112-16.7936 78.848 78.848 0 0 0-10.4448-42.3936l-2.6624-4.3008-4.096-4.3008a76.3904 76.3904 0 0 0-31.5392-30.1056 18.432 18.432 0 0 1-10.0352-16.384 18.2272 18.2272 0 0 1 10.4448-16.384 70.0416 70.0416 0 0 0 31.9488-31.1296l4.3008-7.5776a72.2944 72.2944 0 0 0 12.288-43.6224 18.0224 18.0224 0 0 1 9.0112-16.7936 16.9984 16.9984 0 0 1 9.0112-2.4576 18.0224 18.0224 0 0 1 10.0352 3.072 72.2944 72.2944 0 0 0 43.4176 11.8784h8.6016a69.8368 69.8368 0 0 0 42.8032-12.0832 18.6368 18.6368 0 0 1 19.456 0 18.0224 18.0224 0 0 1 9.0112 16.7936 80.2816 80.2816 0 0 0 10.4448 42.3936 32.5632 32.5632 0 0 1 2.6624 4.5056 23.1424 23.1424 0 0 1 2.4576 4.3008A79.4624 79.4624 0 0 0 912.1792 798.72a18.2272 18.2272 0 0 1 0 32.768z" p-id="3059" fill="#707070"></path><path d="M757.76 761.2416a61.44 61.44 0 1 0 84.3776 22.528 61.44 61.44 0 0 0-84.3776-22.528z m42.1888 72.9088a22.1184 22.1184 0 0 1-17.2032 2.2528 20.48 20.48 0 0 1-13.7216-10.4448 21.9136 21.9136 0 0 1-2.2528-17.2032 23.3472 23.3472 0 0 1 10.4448-13.7216 25.6 25.6 0 0 1 11.264-2.8672 22.3232 22.3232 0 0 1 20.48 11.264 22.7328 22.7328 0 0 1-8.8064 30.72z" p-id="3060" fill="#707070"></path><path d="M620.9536 918.7328a409.6 409.6 0 0 1-90.5216 14.1312v-190.0544c26.0096 0 51.8144 2.2528 77.0048 5.5296a20.48 20.48 0 0 0 21.7088-16.9984 19.2512 19.2512 0 0 0-16.9984-21.9136 763.4944 763.4944 0 0 0-81.92-5.7344v-161.792h190.2592c0 19.456-1.4336 39.1168-3.4816 58.1632a20.48 20.48 0 0 0 17.6128 21.504 20.48 20.48 0 0 0 20.48-17.6128c2.048-20.48 3.072-40.96 3.4816-61.44H921.6a411.4432 411.4432 0 0 1-16.5888 98.7136 20.48 20.48 0 1 0 37.4784 11.264 450.56 450.56 0 0 0-88.064-420.6592 9.4208 9.4208 0 0 0-1.4336-1.4336 450.56 450.56 0 0 0-684.2368 0l-1.4336 1.4336A450.56 450.56 0 0 0 631.3984 956.416a20.48 20.48 0 1 0-10.4448-37.6832z m-279.552-157.2864a743.0144 743.0144 0 0 1 150.1184-18.6368v188.8256c-61.44-11.6736-115.3024-76.8-150.1184-170.1888zM491.52 703.6928a779.4688 779.4688 0 0 0-162.4064 20.48 709.8368 709.8368 0 0 1-27.8528-182.272H491.52z m-390.9632-161.792h161.1776a748.544 748.544 0 0 0 28.2624 192.9216A509.1328 509.1328 0 0 0 189.0304 778.24a409.6 409.6 0 0 1-88.4736-236.3392zM189.2352 266.24a521.4208 521.4208 0 0 0 100.9664 42.5984 760.4224 760.4224 0 0 0-28.4672 193.3312H100.5568A406.9376 406.9376 0 0 1 189.2352 266.24z m491.52 15.9744a742.8096 742.8096 0 0 1-149.7088 18.6368V112.8448c60.2112 11.6736 114.2784 76.5952 149.0944 169.7792zM491.52 112.8448v188.416a746.7008 746.7008 0 0 1-149.9136-18.6368C376.4224 189.44 430.08 124.5184 491.52 112.8448z m0 227.5328v162.2016h-190.464a720.6912 720.6912 0 0 1 27.8528-182.6816 779.4688 779.4688 0 0 0 162.6112 20.48z m39.1168 0a779.4688 779.4688 0 0 0 162.4064-20.48 720.6912 720.6912 0 0 1 27.8528 182.6816h-190.464zM921.6 502.5792h-161.5872a760.4224 760.4224 0 0 0-28.4672-193.3312 526.7456 526.7456 0 0 0 100.9664-43.008A406.9376 406.9376 0 0 1 921.6 502.5792z m-115.0976-266.24a481.4848 481.4848 0 0 1-86.6304 35.4304A397.312 397.312 0 0 0 634.88 130.2528a411.2384 411.2384 0 0 1 171.2128 106.2912zM386.048 130.2528a399.9744 399.9744 0 0 0-83.7632 141.7216 481.4848 481.4848 0 0 1-86.6304-35.4304 411.8528 411.8528 0 0 1 170.3936-106.2912z m-170.8032 677.4784a490.2912 490.2912 0 0 1 86.8352-35.6352 400.384 400.384 0 0 0 83.968 142.1312 415.744 415.744 0 0 1-170.8032-106.496z" p-id="3061" fill="#707070"></path></svg>