<?xml version="1.0" encoding="utf-8"?>
<!-- Generator: Adobe Illustrator 22.1.0, SVG Export Plug-In . SVG Version: 6.00 Build 0)  -->
<svg version="1.1" id="图层_1" xmlns="http://www.w3.org/2000/svg" xmlns:xlink="http://www.w3.org/1999/xlink" x="0px" y="0px"
	 viewBox="0 0 65 65" style="enable-background:new 0 0 65 65;" xml:space="preserve">
<style type="text/css">
	.st0{fill:#5C9EFF;}
	.st1{fill:#94C1FF;}
	.st2{fill:#D7E9FF;}
	.st3{fill:#FFFFFF;}
	.st4{fill:#2287FF;}
	.st5{fill:#116FFF;}
</style>
<g id="_x31_4_team_x2C__command_x2C__company_x2C__business_x2C__job_x2C__work_x2C__office">
	<path class="st0" d="M52,10.9c-5,0-9,4-9,9v13.5h18V19.9C61,15,57,10.9,52,10.9z"/>
	<path class="st1" d="M61.5,31.5c-0.4-0.1-1.9-1.3-2.5-1.5h-7h0h-7c-0.6,0.2-2.1,1.4-2.5,1.5c-1.7,0.6-2.5,1.3-2.5,3
		c0,1.7,0,2.5,0,2.5h24c0,0,0-0.8,0-2.5C64.1,32.7,63.2,32.1,61.5,31.5z"/>
	<path class="st2" d="M44.5,31.5c0.4-0.1,1.9-1.3,2.5-1.5h-2c-0.6,0.2-2.1,1.4-2.5,1.5c-1.7,0.6-2.5,1.3-2.5,3c0,1.7,0,2.5,0,2.5h2
		c0,0,0-0.8,0-2.5C42,32.7,42.9,32.1,44.5,31.5z"/>
	<path class="st0" d="M61.5,31.5c-0.4-0.1-1.9-1.3-2.5-1.5h-2c0.6,0.2,2.1,1.4,2.5,1.5c1.7,0.6,2.5,1.3,2.5,3c0,1.7,0,2.5,0,2.5h2
		c0,0,0-0.8,0-2.5C64.1,32.7,63.2,32.1,61.5,31.5z"/>
	<rect x="48.1" y="27.8" class="st2" width="8" height="3.6"/>
	<polygon class="st3" points="59,29.9 56,27.8 53.1,36.9 57,32.9 56,31.9 	"/>
	<polygon class="st3" points="45,29.9 48.1,27.8 51,36.9 47,32.9 48,31.9 	"/>
	<g>
		<polygon class="st1" points="52,31.9 52,36.9 53.1,36.9 55,30.9 		"/>
		<polygon class="st1" points="51,36.9 52,36.9 52,31.9 49,30.9 		"/>
	</g>
	<path class="st2" d="M56.6,16.1c-0.1,0-2.7-0.1-4.5-0.1c-1.8,0-4.4,0.1-4.5,0.1c-0.1,0-2.5,4.2-2.5,4.2v1.1c0,4.5,4.3,8.6,7,8.6
		c2.7,0,7-4.1,7-8.6v-1.1C59,20.3,56.6,16.1,56.6,16.1z"/>
	<path class="st1" d="M56.6,16.1c-0.1,0-2.7-0.1-4.5-0.1c-0.3,0-0.7,0-1,0c1.6,0,3.5,0.1,3.5,0.1c0.1,0,2.5,4.2,2.5,4.2v1.1
		c0,3.9-3.4,7.6-6,8.4c0.3,0.1,0.7,0.2,1,0.2c2.7,0,7-4.1,7-8.6v-1.1C59,20.3,56.6,16.1,56.6,16.1z"/>
	<path class="st3" d="M47.1,21.3v-1.1c0,0,2.4-4.1,2.5-4.2c0.1,0,1.9-0.1,3.5-0.1c-0.3,0-0.7,0-1,0c-1.8,0-4.4,0.1-4.5,0.1
		c-0.1,0-2.5,4.2-2.5,4.2v1.1c0,4.5,4.3,8.6,7,8.6c0.3,0,0.7-0.1,1-0.2C50.4,28.9,47.1,25.3,47.1,21.3z"/>
	<path class="st1" d="M43.2,21.4c2.7-0.8,9-3.1,10.9-4.2c2.9-1.6,4.7-3.2,4.7-3.2c-1.6-1.8-4-3-6.7-3c-5,0-9,4-9,9
		C43,20.4,43.1,20.9,43.2,21.4z"/>
	<path class="st2" d="M44,19.9c0-4.8,3.8-8.7,8.5-9c-0.2,0-0.3,0-0.5,0c-5,0-9,4-9,9c0,0.5,0.1,1,0.1,1.5c0.3-0.1,0.6-0.2,1-0.3
		C44.1,20.7,44,20.3,44,19.9z"/>
	<path class="st1" d="M61,19.9c0-2.4-1-4.6-2.5-6.2L54,17.2c0,0,2.2,2.5,6.9,3.7C61,20.6,61,20.3,61,19.9z"/>
	<g>
		<path class="st0" d="M58.7,13.9C58.7,13.9,58.7,13.9,58.7,13.9C58.7,13.9,58.7,13.9,58.7,13.9c-0.1-0.1-0.2-0.2-0.2-0.2
			c0,0,0,0,0,0c-1.6-1.7-3.9-2.8-6.5-2.8c-0.2,0-0.3,0-0.5,0c2.4,0.1,4.5,1.2,6,2.8c0,0,0,0,0,0c0,0,0.1,0.1,0.1,0.1
			c0,0,0.1,0.1,0.1,0.1c0,0,0,0,0,0c1.4,1.6,2.3,3.7,2.3,6c0,0.2,0,0.5,0,0.7c0.3,0.1,0.6,0.2,1,0.3c0-0.3,0.1-0.7,0.1-1
			C61,17.6,60.2,15.5,58.7,13.9z"/>
	</g>
	<path class="st1" d="M53,49.9c0,2.7,0,5,0,5H12c0,0,0-2.3,0-5c0-2.7,1.4-3.8,4.1-4.8c1.4-0.5,4.9-1.9,6.9-2.9l1.3-1l3.7,4.7l4-2h1
		l4,2l3.7-4.7l1.3,1c2,1,5.5,2.4,6.9,2.9C51.7,46.2,53,47.2,53,49.9z"/>
	<g>
		<path class="st2" d="M18.1,45.2c1.4-0.5,4.9-1.9,6.9-2.9l0.1,0l-0.8-1l-1.3,1c-2,1-5.5,2.4-6.9,2.9c-2.7,1-4.1,2-4.1,4.8
			c0,2.7,0,5,0,5h2c0,0,0-2.3,0-5C14,47.2,15.4,46.2,18.1,45.2z"/>
	</g>
	<g>
		<path class="st0" d="M46.9,45.2c-1.4-0.5-4.9-1.9-6.9-2.9l-0.1,0l0.8-1l1.3,1c2,1,5.5,2.4,6.9,2.9c2.7,1,4.1,2,4.1,4.8
			c0,2.7,0,5,0,5h-2c0,0,0-2.3,0-5C51,47.2,49.7,46.2,46.9,45.2z"/>
	</g>
	<path class="st2" d="M25.1,36.9h-24v-1c0,0,0-0.7,0-2.3c0-1.7,0.8-2.3,2.5-2.9c0.8-0.3,2.3-0.9,3.5-1.4l1.2-1.2l2.8,2.9l2-1l2,1
		l2.8-2.8l1.1,1.1c1.2,0.6,2.7,1.1,3.5,1.5c1.7,0.6,2.5,1.3,2.5,2.9c0,1.7,0,2.3,0,2.3V36.9z"/>
	<g>
		<path class="st3" d="M3.1,33.6c0-1.7,0.8-2.3,2.5-2.9c0.8-0.3,2.3-0.9,3.5-1.4l0.2-0.2l-1-1l-1.2,1.2c-1.2,0.6-2.7,1.1-3.5,1.4
			c-1.7,0.6-2.5,1.3-2.5,2.9c0,1.7,0,2.3,0,2.3v1h2v-1C3.1,35.9,3.1,35.3,3.1,33.6z"/>
	</g>
	<g>
		<path class="st1" d="M23.1,33.6c0-1.7-0.8-2.3-2.5-2.9c-0.8-0.3-2.3-0.9-3.5-1.4l-0.2-0.2l1-1l1.2,1.2c1.2,0.6,2.7,1.1,3.5,1.4
			c1.7,0.6,2.5,1.3,2.5,2.9c0,1.7,0,2.3,0,2.3v1h-2v-1C23.1,35.9,23.1,35.3,23.1,33.6z"/>
	</g>
	<polygon class="st0" points="14.1,36.9 12.1,36.9 12.6,31.5 13.6,31.5 	"/>
	<rect x="12.2" y="30.1" class="st0" width="1.8" height="1.4"/>
	<polygon class="st3" points="11.1,31 8.1,28 9.1,27 13.1,29.1 13.1,30 	"/>
	<polygon class="st3" points="15.1,31 18.1,28 17.1,27 13.1,29.1 13.1,30 	"/>
	<path class="st0" d="M7.1,11c0,0,14-5,13,8L18,16c-4.4-0.3-9.2,1.7-11.9,3c-1.3,0.6-2,1-2,1c0-6.3,4.1-8,4.1-8L7.1,11z"/>
	<g>
		<path class="st4" d="M12.1,10.1c3.4,0.1,7,1.6,7.1,7.6l1,1.4C20.7,11.3,16,9.9,12.1,10.1z"/>
	</g>
	<g>
		<path class="st1" d="M9.2,12.2L8.1,11c0,0,2.3-0.8,5-0.9C10,10,7.1,11,7.1,11l1.1,1c0,0-4.1,1.8-4.1,8c0,0,0.4-0.2,1-0.5
			C5.3,13.7,9.2,12.2,9.2,12.2z"/>
	</g>
	<path class="st2" d="M20.1,19v1c0,4.8-4.3,9.1-7,9.1c-2.7,0-7-4.4-7-9.1v-1l0,0c2.7-1.3,7.5-3.2,11.9-3L20.1,19z"/>
	<path class="st1" d="M18,16c-0.7,0-1.3,0-2,0l2.1,3v1c0,4.2-3.4,8.1-6,9c0.3,0.1,0.7,0.2,1,0.2c2.7,0,7-4.4,7-9.1v-1L18,16z"/>
	<path class="st3" d="M8.1,20v-1l0,0c2.3-1.1,6.1-2.6,9.9-2.9l0,0c-4.4-0.3-9.2,1.7-11.9,3l0,0v1c0,4.8,4.3,9.1,7,9.1
		c0.3,0,0.7-0.1,1-0.2C11.5,28.1,8.1,24.2,8.1,20z"/>
	<path class="st1" d="M39,16.9c0,0,7.2-1,5.5,10l-3.5-5c0,0-4.1,2-8.5,2c-4.4,0-8.5-2-8.5-2l-3.5,5c-0.4-3.9,0.3-6.8,1.6-9
		c4.9-8.3,18.9-6,18.9-6C37.8,13.3,39,16.9,39,16.9z"/>
	<g>
		<path class="st0" d="M39,16.9c0,0,4.1-0.9,3.8,7.5l1.8,2.5C46.3,15.9,39,16.9,39,16.9z"/>
	</g>
	<g>
		<path class="st2" d="M24.2,18c3-5,9.2-6.2,13.7-6.3c-4.4-0.1-12.3,0.5-15.7,6.3c-1.3,2.2-2,5.1-1.6,9l1.9-2.7
			C22.6,21.6,23.2,19.6,24.2,18z"/>
	</g>
	<path class="st2" d="M44.5,26.9v1c0,7.8-7.4,15-12,15c-3,0-7.2-3.1-9.8-7.4c-1.3-2.3-2.2-4.9-2.2-7.6v-1l3.5-5c0,0,4.1,2,8.5,2
		c4.4,0,8.5-2,8.5-2L44.5,26.9z"/>
	<g>
		<path class="st3" d="M24.8,35.5c-1.3-2.3-2.2-4.9-2.2-7.6v-1l3.1-4.4c-1-0.4-1.6-0.6-1.6-0.6l-3.5,5v1c0,2.7,0.9,5.3,2.2,7.6
			c2.5,4.3,6.8,7.4,9.8,7.4c0.3,0,0.7,0,1-0.1C30.7,42.2,27,39.4,24.8,35.5z"/>
	</g>
	<g>
		<path class="st1" d="M40.2,35.5c1.3-2.3,2.2-4.9,2.2-7.6v-1l-3.1-4.4c1-0.4,1.6-0.6,1.6-0.6l3.5,5v1c0,2.7-0.9,5.3-2.2,7.6
			c-2.5,4.3-6.8,7.4-9.8,7.4c-0.3,0-0.7,0-1-0.1C34.3,42.2,37.9,39.4,40.2,35.5z"/>
	</g>
	<polygon class="st3" points="28,45.9 24,40.9 24,39.9 26.4,39.9 29.1,41.9 32.5,42.9 32.6,43.9 	"/>
	<polygon class="st3" points="37.1,45.9 41.1,40.9 41.1,39.9 38.7,39.9 36,41.9 32.6,42.9 32.5,43.9 	"/>
	<g>
		<path class="st5" d="M32.6,47.4c-0.3,0-0.5-0.2-0.5-0.5s0.2-0.5,0.5-0.5h0c0.3,0,0.5,0.2,0.5,0.5S32.8,47.4,32.6,47.4z"/>
		<path class="st5" d="M32.6,50.4c-0.3,0-0.5-0.2-0.5-0.5s0.2-0.5,0.5-0.5h0c0.3,0,0.5,0.2,0.5,0.5S32.8,50.4,32.6,50.4z"/>
		<path class="st5" d="M32.6,53.4c-0.3,0-0.5-0.2-0.5-0.5s0.2-0.5,0.5-0.5h0c0.3,0,0.5,0.2,0.5,0.5S32.8,53.4,32.6,53.4z"/>
		<path class="st5" d="M52.1,34.4c-0.3,0-0.5-0.2-0.5-0.5s0.2-0.5,0.5-0.5h0c0.3,0,0.5,0.2,0.5,0.5S52.3,34.4,52.1,34.4z"/>
		<g>
			<path class="st5" d="M53,55.4H12c-0.3,0-0.5-0.2-0.5-0.5v-5c0-3,1.6-4.2,4.4-5.2c1.7-0.6,5-1.9,6.9-2.9c0.2-0.1,0.5,0,0.7,0.2
				s0,0.5-0.2,0.7c-2.3,1.2-6.5,2.7-6.9,2.9c-2.6,1-3.8,1.8-3.8,4.3v4.5h40v-4.5c0-2.5-1.2-3.4-3.8-4.3c-1.7-0.6-5-2-7-2.9
				c-0.2-0.1-0.3-0.4-0.2-0.7s0.4-0.3,0.7-0.2c1.9,0.9,5.2,2.2,6.9,2.9c2.9,1.1,4.4,2.2,4.4,5.2v5C53.5,55.2,53.3,55.4,53,55.4z"/>
			<path class="st5" d="M32.5,43.4c-3.2,0-7.6-3.3-10.2-7.7c-1.5-2.5-2.3-5.2-2.3-7.8c0-0.3,0.2-0.5,0.5-0.5s0.5,0.2,0.5,0.5
				c0,2.4,0.7,4.9,2.2,7.3c2.4,4,6.5,7.2,9.3,7.2c4.3,0,11.5-7,11.5-14.5c0-0.3,0.2-0.5,0.5-0.5s0.5,0.2,0.5,0.5
				C45,36.2,37.3,43.4,32.5,43.4z"/>
			<path class="st5" d="M20.5,27.4c0,0-0.1,0-0.1,0c-0.2-0.1-0.4-0.2-0.4-0.4c-0.3-3.7,0.2-6.8,1.7-9.3c5.1-8.5,18.8-6.4,19.4-6.3
				c0.2,0,0.4,0.2,0.4,0.4c0,0.2-0.1,0.4-0.3,0.5c-2.3,0.9-2,3.1-1.8,4c0.8,0,2.6,0.1,4,1.6c1.7,1.8,2.3,4.8,1.6,9
				c0,0.2-0.2,0.4-0.4,0.4c-0.2,0-0.4,0-0.5-0.2l-3.3-4.7c-1.1,0.5-4.6,1.9-8.3,1.9c-3.7,0-7.2-1.4-8.3-1.9L21,27.2
				C20.9,27.3,20.7,27.4,20.5,27.4z M41,21.4c0.2,0,0.3,0.1,0.4,0.2l2.8,3.9c0.3-3.2-0.2-5.6-1.5-6.9c-1.5-1.5-3.6-1.3-3.6-1.3
				c-0.2,0-0.5-0.1-0.5-0.3c-0.4-1.2-0.6-3.4,1-4.8c-3.6-0.3-13.1-0.4-17,6c-1.2,1.9-1.7,4.4-1.6,7.2l2.7-3.8
				c0.1-0.2,0.4-0.3,0.6-0.2c0,0,4.1,1.9,8.3,1.9c4.2,0,8.3-1.9,8.3-2C40.9,21.4,41,21.4,41,21.4z"/>
			<path class="st5" d="M52,30.4c-1.6,0-3.8-1.4-5.4-3.4c-0.2-0.2-0.1-0.5,0.1-0.7c0.2-0.2,0.5-0.1,0.7,0.1c1.4,1.8,3.3,3,4.6,3
				c2.4,0,6.5-3.9,6.5-8.1c0-0.3,0.2-0.5,0.5-0.5s0.5,0.2,0.5,0.5C59.5,26.2,54.9,30.4,52,30.4z"/>
			<path class="st5" d="M64.1,37.4H44c-0.3,0-0.5-0.2-0.5-0.5s0.2-0.5,0.5-0.5h19.5v-2c0-1.3-0.5-1.8-2.2-2.5
				c-0.3-0.1-0.6-0.2-1-0.3l-0.5-0.2c-0.3-0.1-0.4-0.4-0.3-0.6c0.1-0.3,0.4-0.4,0.6-0.3l0.5,0.2c0.4,0.1,0.7,0.2,1,0.3
				c1.8,0.7,2.9,1.4,2.9,3.4v2.5C64.6,37.2,64.3,37.4,64.1,37.4z"/>
			<path class="st5" d="M13.1,37.4h-12c-0.3,0-0.5-0.2-0.5-0.5v-3.3c0-1.9,1-2.7,2.8-3.4c0.8-0.3,2.3-0.8,3.5-1.4
				c0.2-0.1,0.5,0,0.7,0.2c0.1,0.2,0,0.5-0.2,0.7c-1.2,0.6-2.8,1.2-3.5,1.5c-1.7,0.6-2.2,1.2-2.2,2.5v2.8h11.5
				c0.3,0,0.5,0.2,0.5,0.5S13.3,37.4,13.1,37.4z"/>
			<path class="st5" d="M21,37.4h-8c-0.3,0-0.5-0.2-0.5-0.5s0.2-0.5,0.5-0.5h8c0.3,0,0.5,0.2,0.5,0.5S21.3,37.4,21,37.4z"/>
			<path class="st5" d="M13.1,29.6c-2.8,0-7.5-4.5-7.5-9.6c0-0.3,0.2-0.5,0.5-0.5s0.5,0.2,0.5,0.5c0,4.4,4.1,8.6,6.5,8.6
				c1.3,0,3.2-1.3,4.6-3.2c0.2-0.2,0.5-0.3,0.7-0.1c0.2,0.2,0.3,0.5,0.1,0.7C16.9,28.1,14.7,29.6,13.1,29.6z"/>
			<path class="st5" d="M11.1,31.4c-0.1,0-0.3-0.1-0.4-0.1l-3-3c-0.2-0.2-0.2-0.5,0-0.7s0.5-0.2,0.7,0l2.7,2.7l1.7-0.8
				c0.2-0.1,0.4-0.1,0.6,0.1c0.2,0.2,0.2,0.5,0,0.7c0,0-0.1,0.1-0.1,0.1l-2,1C11.2,31.4,11.2,31.4,11.1,31.4z"/>
			<path class="st5" d="M15.1,31.4c-0.1,0-0.2,0-0.2-0.1l-2-1l0.4-0.9l1.7,0.8l2.7-2.7c0.2-0.2,0.5-0.2,0.7,0s0.2,0.5,0,0.7l-3,3
				C15.3,31.4,15.2,31.4,15.1,31.4z"/>
			<path class="st5" d="M4.1,20.4c-0.1,0-0.2,0-0.2-0.1c-0.2-0.1-0.3-0.3-0.3-0.4c0-5,2.5-7.3,3.7-8.1l-0.6-0.5
				c-0.1-0.1-0.2-0.3-0.1-0.5c0-0.2,0.2-0.3,0.3-0.4c0.3-0.1,6.7-2.3,10.7,0.3c1.8,1.2,2.9,3.3,3,6.1c0,0.3-0.2,0.5-0.5,0.5
				c-0.3,0-0.5-0.2-0.5-0.5c-0.1-2.5-1-4.3-2.6-5.3c-2.8-1.9-7.2-1-9-0.5l0.4,0.4c0.1,0.1,0.2,0.3,0.2,0.5s-0.1,0.3-0.3,0.4
				c-0.1,0.1-3.4,1.6-3.8,6.7c2.1-1.1,8.1-3.9,13.4-3.6c0.2,0,0.3,0.1,0.4,0.3l1.1,2c0.1,0.2,0,0.5-0.2,0.7c-0.2,0.1-0.5,0-0.7-0.2
				l-0.9-1.8c-6.1-0.2-13.3,3.9-13.4,3.9C4.2,20.4,4.1,20.4,4.1,20.4z"/>
			<path class="st5" d="M13.1,32.4c-0.1,0-0.3,0-0.4-0.1l-1-1c-0.2-0.2-0.2-0.5,0-0.7s0.5-0.2,0.7,0l1,1c0.2,0.2,0.2,0.5,0,0.7
				C13.3,32.4,13.2,32.4,13.1,32.4z"/>
			<path class="st5" d="M13.1,32.4c-0.1,0-0.3,0-0.4-0.1c-0.2-0.2-0.2-0.5,0-0.7l1-1c0.2-0.2,0.5-0.2,0.7,0s0.2,0.5,0,0.7l-1,1
				C13.3,32.4,13.2,32.4,13.1,32.4z"/>
			<path class="st5" d="M12.1,36.4C12,36.4,12,36.4,12.1,36.4c-0.3,0-0.5-0.3-0.5-0.6l0.5-4.5c0-0.3,0.3-0.5,0.6-0.4
				c0.3,0,0.5,0.3,0.4,0.6L12.6,36C12.5,36.2,12.3,36.4,12.1,36.4z"/>
			<path class="st5" d="M14.1,36.4c-0.3,0-0.5-0.2-0.5-0.4l-0.5-4.5c0-0.3,0.2-0.5,0.4-0.6c0.3,0,0.5,0.2,0.6,0.4l0.5,4.5
				C14.6,36.1,14.4,36.4,14.1,36.4C14.1,36.4,14.1,36.4,14.1,36.4z"/>
			<path class="st5" d="M61,29.8c-0.3,0-0.5-0.2-0.5-0.5v-9.4c0-0.3,0.2-0.5,0.5-0.5s0.5,0.2,0.5,0.5v9.4
				C61.5,29.6,61.3,29.8,61,29.8z"/>
			<path class="st5" d="M44,16.4c-0.1,0-0.2,0-0.2-0.1c-0.2-0.1-0.3-0.4-0.2-0.7c1.6-3.3,4.9-5.3,8.5-5.3c0.3,0,0.5,0.2,0.5,0.5
				s-0.2,0.5-0.5,0.5c-3.3,0-6.2,1.8-7.6,4.7C44.3,16.3,44.2,16.4,44,16.4z"/>
			<path class="st5" d="M61,20.4c-0.3,0-0.5-0.2-0.5-0.5c0-2.1-0.8-4.1-2.2-5.7c-1.6-1.8-3.9-2.8-6.3-2.8c-0.3,0-0.5-0.2-0.5-0.5
				s0.2-0.5,0.5-0.5c2.7,0,5.3,1.2,7.1,3.2c1.6,1.7,2.4,4,2.4,6.3C61.5,20.2,61.3,20.4,61,20.4z"/>
			<path class="st5" d="M47,20.6c-0.2,0-0.4-0.1-0.5-0.4c-0.1-0.3,0.1-0.5,0.3-0.6c2.3-0.6,4.6-1.6,6.9-2.9c2.9-1.6,4.6-3.2,4.6-3.2
				c0.2-0.2,0.5-0.2,0.7,0s0.2,0.5,0,0.7c-0.1,0.1-1.8,1.6-4.8,3.3c-2.3,1.3-4.7,2.3-7.1,3C47.1,20.6,47.1,20.6,47,20.6z"/>
			<path class="st5" d="M61,21.4c0,0-0.1,0-0.1,0c-4.8-1.3-7.1-3.8-7.2-3.9c-0.2-0.2-0.2-0.5,0-0.7c0.2-0.2,0.5-0.2,0.7,0
				c0,0,2.2,2.4,6.8,3.6c0.3,0.1,0.4,0.3,0.4,0.6C61.5,21.3,61.3,21.4,61,21.4z"/>
			<path class="st5" d="M59,21.8c-0.3,0-0.5-0.2-0.5-0.5v-1.1c0-0.3,0.2-0.5,0.5-0.5s0.5,0.2,0.5,0.5v1.1
				C59.5,21.6,59.3,21.8,59,21.8z"/>
			<path class="st5" d="M54.1,36.4c-0.1,0-0.3,0-0.4-0.1c-0.2-0.2-0.2-0.5,0-0.7l2.6-2.6l-0.6-0.6c-0.1-0.1-0.2-0.3-0.1-0.4
				c0-0.1,0.1-0.3,0.2-0.4l2.4-1.6l-1.4-1c-0.2-0.2-0.3-0.5-0.1-0.7c0.2-0.2,0.5-0.3,0.7-0.1l2,1.4c0.1,0.1,0.2,0.3,0.2,0.4
				s-0.1,0.3-0.2,0.4L56.8,32l0.6,0.6c0.2,0.2,0.2,0.5,0,0.7l-3,3C54.3,36.4,54.2,36.4,54.1,36.4z"/>
			<path class="st5" d="M50,36.4c-0.1,0-0.3,0-0.4-0.1l-3-3c-0.2-0.2-0.2-0.5,0-0.7l0.6-0.6l-0.5-0.3c-0.2-0.2-0.3-0.5-0.1-0.7
				c0.2-0.2,0.5-0.3,0.7-0.1l1,0.7c0.1,0.1,0.2,0.2,0.2,0.4s0,0.3-0.1,0.4l-0.6,0.6l2.6,2.6c0.2,0.2,0.2,0.5,0,0.7
				C50.3,36.4,50.2,36.4,50,36.4z"/>
			<path class="st5" d="M52,32.4c-2.2,0-3.3-1.1-3.4-1.1c-0.2-0.2-0.2-0.5,0-0.7c0.2-0.2,0.5-0.2,0.7,0l0,0c0,0,0.9,0.9,2.6,0.9
				s2.6-0.8,2.6-0.8c0.2-0.2,0.5-0.2,0.7,0c0.2,0.2,0.2,0.5,0,0.7C55.4,31.3,54.2,32.4,52,32.4z"/>
			<path class="st5" d="M24,41.4c-0.3,0-0.5-0.2-0.5-0.5v-1c0-0.3,0.2-0.5,0.5-0.5s0.5,0.2,0.5,0.5v1C24.5,41.2,24.3,41.4,24,41.4z"
				/>
			<path class="st5" d="M28,46.4c-0.1,0-0.3-0.1-0.4-0.2l-4-5c-0.2-0.2-0.1-0.5,0.1-0.7c0.2-0.2,0.5-0.1,0.7,0.1l4,5
				c0.2,0.2,0.1,0.5-0.1,0.7C28.3,46.4,28.2,46.4,28,46.4z"/>
			<path class="st5" d="M28,46.4c-0.2,0-0.4-0.1-0.4-0.3c-0.1-0.2,0-0.5,0.2-0.7l4-2c0.2-0.1,0.5,0,0.7,0.2c0.1,0.2,0,0.5-0.2,0.7
				l-4,2C28.2,46.4,28.1,46.4,28,46.4z"/>
			<path class="st5" d="M41,41.4c-0.3,0-0.5-0.2-0.5-0.5v-1c0-0.3,0.2-0.5,0.5-0.5s0.5,0.2,0.5,0.5v1C41.5,41.2,41.3,41.4,41,41.4z"
				/>
			<path class="st5" d="M37,46.4c-0.1,0-0.2,0-0.3-0.1c-0.2-0.2-0.3-0.5-0.1-0.7l4-5c0.2-0.2,0.5-0.3,0.7-0.1
				c0.2,0.2,0.3,0.5,0.1,0.7l-4,5C37.3,46.4,37.2,46.4,37,46.4z"/>
			<path class="st5" d="M37,46.4c-0.1,0-0.2,0-0.2-0.1l-4-2c-0.2-0.1-0.3-0.4-0.2-0.7c0.1-0.2,0.4-0.3,0.7-0.2l4,2
				c0.2,0.1,0.3,0.4,0.2,0.7C37.4,46.3,37.2,46.4,37,46.4z"/>
		</g>
	</g>
</g>
</svg>
