<?xml version="1.0" standalone="no"?><!DOCTYPE svg PUBLIC "-//W3C//DTD SVG 1.1//EN" "http://www.w3.org/Graphics/SVG/1.1/DTD/svg11.dtd"><svg t="1710943637686" class="icon" viewBox="0 0 1024 1024" version="1.1" xmlns="http://www.w3.org/2000/svg" p-id="4401" xmlns:xlink="http://www.w3.org/1999/xlink" width="240" height="240"><path d="M785.544073 541.133527c5.250584-4.819772 10.465352-9.707083 15.352663-14.594393 20.797675-20.798698 29.398564-45.790906 23.006993-66.855664-2.959402-9.751085-8.919137-17.733896-16.85897-23.01211 7.607258-33.933857 22.340821-125.060297-21.723767-183.696766-25.267477-33.622772-64.968687-50.672076-117.999484-50.672076-44.683688 0-76.79299 11.758812-99.873662 28.52773-1.701758-2.610454-3.482311-5.178953-5.369288-7.689123-28.729322-38.229696-73.974805-57.614186-134.477784-57.614186-44.028772 0-81.092923 9.987468-110.163005 29.684066-24.962531 16.913205-43.999097 40.891316-56.580646 71.26816-17.018605 41.084721-18.854417 85.892229-17.398252 116.246561 0.892323 18.59859 3.044336 33.227776 4.691859 42.225707 0.529049 2.88777 1.040702 5.4225 1.534959 7.653307-8.968256 6.572696-20.12434 17.854647-23.417339 34.746362-4.384867 22.485107 6.362918 46.858214 31.945573 72.439846 11.43033 11.431354 22.521946 21.897729 32.3068 31.133068 26.595728 25.100678 49.565882 46.778396 49.773613 61.191664 0.026606 1.88186 0.109494 7.607258-9.370415 17.086144-28.51852 28.51852-134.581138 61.659315-198.915375 76.977185-9.608845 2.288113-26.016537 8.753361-40.634466 19.441794-18.562774 13.573133-28.375258 29.738301-28.375258 46.746674 0 27.503401 1.163499 49.929156 1.213641 50.870598 0.428765 8.15268 7.16519 14.542204 15.328104 14.542204l496.569566 0c36.894282 59.923788 103.097076 99.962689 178.481997 99.962689 115.490338 0 209.449289-93.957929 209.449289-209.449289C964.04449 643.314745 886.411365 556.138266 785.544073 541.133527zM667.323555 233.001705c42.826388 0 74.254168 12.905938 93.41353 38.35761 44.657082 59.326177 13.84431 168.842453 13.531178 169.930227-1.196245 4.130064-0.604774 8.571213 1.629103 12.244882 2.234901 3.673669 5.9055 6.241145 10.123568 7.079232 5.351891 1.064238 7.580652 4.928243 8.506744 7.982812 2.352581 7.749498-0.443092 21.337981-15.337313 36.234249-6.922666 6.921643-14.494109 13.796214-22.511713 21.074991-7.220449 6.5553-13.699 10.719132-19.552312 13.670348-84.488253 7.010671-154.902976 64.376193-181.060729 141.933593-18.379603-7.936763-33.613562-15.96767-44.413536-23.449062-17.242709-11.943007-17.442254-18.20871-17.442254-18.270109 0-24.623817 29.953196-51.818179 58.919924-78.116125 9.148357-8.306176 18.609847-16.895809 27.174919-25.460882 23.405059-23.405059 33.123398-51.40067 25.996071-74.889641-3.422959-11.277858-10.489912-20.400632-19.900236-26.177196 7.212262-31.461549 21.152762-111.48921-4.697999-176.593997C602.940199 241.586221 631.604028 233.001705 667.323555 233.001705zM94.287433 827.079048c-0.292666-8.969279-0.586354-21.299095-0.586354-34.713616 0-15.823384 29.408797-32.511461 45.421492-36.3243 17.246803-4.106528 169.760358-41.381479 213.511815-85.132936 12.55392-12.552897 18.558681-25.388227 18.358113-39.237653-0.396019-27.389814-25.14468-50.746778-59.398832-83.074044-9.634428-9.092076-20.553105-19.397792-31.670304-30.513968-17.582447-17.582447-25.725918-33.038464-23.551392-44.699038 2.335185-12.520151 16.57449-19.287275 17.545608-19.73446 4.743024-1.940189 8.093329-6.075369 9.115612-11.100826 0.756223-3.720741 0.038886-7.512091-1.850138-10.706853-1.998517-6.036483-7.77508-33.636075-7.408737-68.988234 0.323365-31.187303 5.64865-75.647911 29.185716-110.35334 25.323758-37.340443 67.260893-56.273654 124.643811-56.273654 50.297546 0 87.270623 15.241123 109.890806 45.299719 52.338019 69.545936 16.386202 197.2392 16.018835 198.510146-1.196245 4.130064-0.604774 8.571213 1.629103 12.244882 2.234901 3.673669 5.906523 6.242168 10.123568 7.079232 5.734608 1.13894 9.873882 5.002944 11.657504 10.877745 2.920516 9.621125-0.36225 26.303063-18.326391 44.268226-8.04114 8.04114-16.814967 16.006556-26.103518 24.438599-33.914414 30.79026-68.983117 62.628386-68.983117 100.845803 0 14.986319 10.029424 29.217439 30.6603 43.50791 13.524015 9.367345 31.742958 18.876929 54.197366 28.302603-2.114151 11.916401-3.221368 24.176632-3.221368 36.690644 0 27.856441 5.479805 54.453193 15.396665 78.787414L94.287433 827.079048zM754.5952 927.041738c-98.562806 0-178.750103-80.186274-178.750103-178.750103 0-88.132246 64.116273-161.562653 148.151201-176.119183l0.167822 0.031722c0-0.020466 0.001023-0.039909 0.001023-0.060375 9.892301-1.703805 20.057825-2.602268 30.429033-2.602268 98.562806 0 178.750103 80.186274 178.750103 178.750103S853.158007 927.041738 754.5952 927.041738z" fill="#333333" p-id="4402"></path><path d="M769.17629 633.688503 738.479151 633.688503 738.479151 742.665497 643.315768 742.665497 643.315768 773.362636 738.479151 773.362636 738.479151 862.894765 769.17629 862.894765 769.17629 773.362636 865.874633 773.362636 865.874633 742.665497 769.17629 742.665497Z" fill="#333333" p-id="4403"></path></svg>