<?xml version="1.0" standalone="no"?><!DOCTYPE svg PUBLIC "-//W3C//DTD SVG 1.1//EN" "http://www.w3.org/Graphics/SVG/1.1/DTD/svg11.dtd"><svg t="1710943870914" class="icon" viewBox="0 0 1024 1024" version="1.1" xmlns="http://www.w3.org/2000/svg" p-id="10511" xmlns:xlink="http://www.w3.org/1999/xlink" width="240" height="240"><path d="M960 640c-12.8-12.8-32-25.6-44.8-32-38.4-70.4-102.4-121.6-179.2-147.2 64-38.4 108.8-115.2 108.8-198.4 0-128-102.4-230.4-230.4-230.4-76.8 0-134.4 32-179.2 83.2-12.8 12.8-6.4 38.4 12.8 44.8 12.8 0 25.6 0 32-12.8 19.2-25.6 51.2-44.8 89.6-57.6 140.8-32 243.2 64 217.6 204.8-12.8 64-38.4 115.2-108.8 134.4-6.4 0-19.2 6.4-25.6 6.4-19.2 6.4-25.6 19.2-25.6 32s6.4 25.6 12.8 32h6.4c6.4 0 12.8 0 19.2 6.4 64 6.4 115.2 32 153.6 70.4-64-6.4-128 12.8-172.8 64-12.8 12.8-25.6 32-38.4 51.2-32-25.6-64-44.8-102.4-57.6 64-38.4 108.8-115.2 108.8-198.4 0-128-102.4-230.4-230.4-230.4S147.2 307.2 147.2 435.2c0 76.8 44.8 147.2 102.4 192 6.4 0 0 6.4 0 6.4C128 678.4 44.8 793.6 32 928c0 12.8 12.8 25.6 25.6 25.6H64c12.8 0 25.6-12.8 32-25.6 12.8-147.2 134.4-262.4 288-262.4 76.8 0 147.2 32 204.8 83.2-19.2 70.4 0 153.6 57.6 204.8 89.6 89.6 230.4 89.6 313.6 0 83.2-83.2 83.2-224 0-313.6z m-582.4-25.6c-96 0-172.8-76.8-172.8-172.8 0-96 70.4-166.4 160-172.8 108.8-6.4 198.4 83.2 192 192-12.8 83.2-83.2 153.6-179.2 153.6z m556.8 211.2h-115.2v115.2c0 12.8-6.4 19.2-19.2 19.2-6.4 0-6.4 0-12.8-6.4s-6.4-6.4-6.4-12.8v-115.2h-108.8c-6.4 0-6.4 0-12.8-6.4s-6.4-6.4-6.4-12.8c0-12.8 6.4-19.2 19.2-19.2h115.2v-115.2c0-12.8 6.4-19.2 19.2-19.2 12.8 0 19.2 6.4 19.2 19.2v115.2h115.2c12.8 0 19.2 6.4 19.2 19.2-12.8 12.8-19.2 19.2-25.6 19.2z" p-id="10512" fill="#bfbfbf"></path></svg>