<?xml version="1.0" standalone="no"?><!DOCTYPE svg PUBLIC "-//W3C//DTD SVG 1.1//EN" "http://www.w3.org/Graphics/SVG/1.1/DTD/svg11.dtd"><svg t="1713166258882" class="icon" viewBox="0 0 1024 1024" version="1.1" xmlns="http://www.w3.org/2000/svg" p-id="1818" xmlns:xlink="http://www.w3.org/1999/xlink" width="240" height="240"><path d="M512.0512 1024C229.7088 1024 0 794.368 0 512.0512S229.7088 0 512.0512 0C794.3936 0 1024 229.632 1024 511.9488S794.368 1024 512.0512 1024zM512 51.2C257.8944 51.2 51.2 257.92 51.2 512s206.6944 460.8 460.8 460.8 460.8-206.72 460.8-460.8S766.1056 51.2 512 51.2z m166.4 460.8c-49.408 0-89.6-40.192-89.6-89.6s40.192-89.6 89.6-89.6 89.6 40.192 89.6 89.6-40.192 89.6-89.6 89.6z m0-128a38.4 38.4 0 1 0 0 76.8 38.4 38.4 0 0 0 0-76.8z m-369.2288 153.6l-25.472-44.7488 92.8768-63.1552L281.6 348.8768 311.1936 307.2 460.8 434.432 309.1712 537.6z m195.7376 256h-3.0464c-141.7472-2.048-241.664-141.9008-245.8624-147.8656l40.5504-30.7968c0.8448 1.3056 89.7024 125.0048 206.2592 126.4128h2.0992c68.5568 0 135.04-42.7264 197.6576-126.9504L742.4 646.144C669.7472 744.0896 589.8752 793.6 504.9088 793.6z" fill="#1296db" p-id="1819"></path></svg>