<?xml version="1.0" standalone="no"?><!DOCTYPE svg PUBLIC "-//W3C//DTD SVG 1.1//EN" "http://www.w3.org/Graphics/SVG/1.1/DTD/svg11.dtd"><svg t="1713528494876" class="icon" viewBox="0 0 1024 1024" version="1.1" xmlns="http://www.w3.org/2000/svg" p-id="2368" xmlns:xlink="http://www.w3.org/1999/xlink" width="240" height="240"><path d="M510.3 501.1m-453 0a453 453 0 1 0 906 0 453 453 0 1 0-906 0Z" fill="#FFFFFF" p-id="2369"></path><path d="M511.5 0.6C228.1 0.6 0 228.7 0 512.1s228.1 511.5 511.5 511.5S1023 795.5 1023 512.1 794.9 0.6 511.5 0.6z m274.9 771.6c-2.1 21.3-12.8 32-32 40.5-25.6 10.7-51.2 14.9-78.8 14.9-49.1 2.1-102.3 4.3-142.8 4.3-74.6 0-136.4 0-198.2-6.4-19.2-2.1-38.4-6.4-53.2-17.1-14.9-8.5-23.5-23.5-23.5-40.5-2.1-119.4 87.4-215.3 206.7-215.3 49 0 100.2-4.3 149.1 2.1C714 567.6 794.9 667.8 786.4 772.2zM353.7 375.8c0-87.4 72.4-161.9 161.9-161.9s164.1 74.6 164.1 161.9c0 89.5-74.6 164.1-164.1 164.1-87.2 0-164-76.7-161.9-164.1z m0 0" fill="#cdcdcd" p-id="2370"></path></svg>