<?xml version="1.0" standalone="no"?><!DOCTYPE svg PUBLIC "-//W3C//DTD SVG 1.1//EN" "http://www.w3.org/Graphics/SVG/1.1/DTD/svg11.dtd"><svg t="1686051100199" class="icon" viewBox="0 0 1035 1024" version="1.1" xmlns="http://www.w3.org/2000/svg" p-id="2494" xmlns:xlink="http://www.w3.org/1999/xlink" width="129.375" height="128"><path d="M921.348011 358.302004h102.372002v102.372002h-102.372002zM563.046007 0h102.372001v102.372001h-102.372001zM795.328078 156.168488l72.377005-72.377005 72.377005 72.377005-72.377005 72.377005zM288.586672 156.219674l72.377004-72.428191 72.377005 72.428191-72.377005 72.377005z" fill="#515151" p-id="2495"></path><path d="M815.90485 563.046007A251.835123 251.835123 0 0 0 870.162011 409.488005a255.930003 255.930003 0 0 0-255.930003-255.930003 255.930003 255.930003 0 0 0-232.896303 153.558002H358.302004a358.302004 358.302004 0 0 0 0 716.604009h435.081006a229.825143 229.825143 0 0 0 22.52184-460.674006z m-22.52184 358.302004H358.302004a255.930003 255.930003 0 1 1 251.835123-298.414383l7.166041 42.48438h176.079842a127.965002 127.965002 0 0 1 0 255.930003z" fill="#515151" p-id="2496"></path></svg>